<svg width="100" height="100" viewBox="0 0 100 100" fill="none" xmlns="http://www.w3.org/2000/svg">
<path d="M9.62891 52.778L4.62891 46.1113L50.4622 11.1113L67.1289 23.8197V15.278H79.6289V33.403L96.2956 46.1113L91.2956 52.778L50.4622 21.6322L9.62891 52.778Z" fill="#676767"/>
<path d="M42.3551 76.944L50.5551 68.744L58.7551 76.944L61.944 73.7551L53.744 65.5551L61.944 57.3551L58.7551 54.1662L50.5551 62.3662L42.3551 54.1662L39.1662 57.3551L47.3662 65.5551L39.1662 73.7551L42.3551 76.944ZM50.5551 88.3329C47.4042 88.3329 44.4431 87.735 41.6718 86.5392C38.9005 85.3433 36.4898 83.7204 34.4398 81.6704C32.3898 79.6204 30.7669 77.2098 29.5711 74.4385C28.3753 71.6672 27.7773 68.706 27.7773 65.5551C27.7773 62.4042 28.3753 59.4431 29.5711 56.6718C30.7669 53.9005 32.3898 51.4898 34.4398 49.4398C36.4898 47.3898 38.9005 45.7669 41.6718 44.5711C44.4431 43.3753 47.4042 42.7773 50.5551 42.7773C53.706 42.7773 56.6672 43.3753 59.4385 44.5711C62.2098 45.7669 64.6204 47.3898 66.6704 49.4398C68.7204 51.4898 70.3433 53.9005 71.5392 56.6718C72.735 59.4431 73.3329 62.4042 73.3329 65.5551C73.3329 68.706 72.735 71.6672 71.5392 74.4385C70.3433 77.2098 68.7204 79.6204 66.6704 81.6704C64.6204 83.7204 62.2098 85.3433 59.4385 86.5392C56.6672 87.735 53.706 88.3329 50.5551 88.3329Z" fill="#FF3B30"/>
</svg>
