<svg width="80" height="80" viewBox="0 0 80 80" fill="none" xmlns="http://www.w3.org/2000/svg">
<path d="M64.0324 27.375L62.0742 29.7995L38.1719 12.4244L40.1301 10L64.0324 27.375Z" fill="#FA5A28"/>
<path d="M40.124 10L42.0511 12.4555L17.9623 29.613L16.0352 27.1575L40.124 10Z" fill="#FA5A28"/>
<path d="M57.9689 44.1905V29.7061L40.0344 17.7705L22.131 29.7061V43.1337L11.6562 51.5881V69.5848H35.0302V55.6599H45.3495V69.5848H67.9153V51.5881L57.9689 44.1905ZM29.9948 61.2858H18.2457V55.6599H30.1191L29.9948 61.2858ZM37.4235 39.9322H25.4879V31.3535H37.5478L37.4235 39.9322ZM41.2777 31.3535H53.3377V39.9322H41.4021L41.2777 31.3535ZM63.0354 61.2858H51.0997V55.6599H63.0043L63.0354 61.2858Z" fill="#FA5A28"/>
<path d="M60.8906 38.4082V42.3867C60.8906 42.3867 72.7952 51.7114 73.106 51.4006C73.7907 50.5374 74.4238 49.6344 75.002 48.6965L60.8906 38.4082Z" fill="#FA5A28"/>
<path d="M19.1114 38.4082V42.3867C19.1114 42.3867 7.17578 51.7114 6.86496 51.4006C6.18903 50.5379 5.56621 49.6348 5 48.6965L19.1114 38.4082Z" fill="#FA5A28"/>
</svg>
