<svg width="46" height="22" viewBox="0 0 46 22" fill="none" xmlns="http://www.w3.org/2000/svg">
<path d="M34.9323 21.9232L45.8936 10.962L34.9323 0L31.7246 3.162L37.2746 8.712H21.5763V13.2112H37.2746L31.7703 18.762L34.9323 21.9232ZM13.1801 13.356C13.8581 13.356 14.4271 13.1267 14.8871 12.6682C15.3466 12.2092 15.5763 11.641 15.5763 10.9635C15.5763 10.2855 15.3471 9.71675 14.8886 9.25725C14.4296 8.79725 13.8613 8.56725 13.1838 8.56725C12.5058 8.56725 11.9368 8.79675 11.4768 9.25575C11.0173 9.71425 10.7876 10.2825 10.7876 10.9605C10.7876 11.638 11.0168 12.2067 11.4753 12.6667C11.9343 13.1262 12.5026 13.356 13.1801 13.356ZM2.39205 13.356C3.07005 13.356 3.63881 13.1267 4.0983 12.6682C4.5578 12.2092 4.78755 11.641 4.78755 10.9635C4.78755 10.2855 4.5583 9.71675 4.0998 9.25725C3.6413 8.79725 3.07306 8.56725 2.39506 8.56725C1.71706 8.56725 1.1483 8.79675 0.688805 9.25575C0.229305 9.71425 -0.000442505 10.2825 -0.000442505 10.9605C-0.000442505 11.638 0.228802 12.2067 0.687302 12.6667C1.14581 13.1262 1.71405 13.356 2.39205 13.356Z" fill="#1D3B34"/>
</svg>
