<svg width="80" height="80" viewBox="0 0 80 80" fill="none" xmlns="http://www.w3.org/2000/svg">
<path d="M67.3871 50H56.3646L64.5684 31.25H75.5896L67.3871 50ZM61.8396 31.25L53.6371 50H41.3646L43.0009 46.25H50.0009C50.2342 46.2513 50.4633 46.1872 50.6621 46.065C50.8609 45.9429 51.0216 45.7675 51.1259 45.5587L56.1259 35.5588C56.2102 35.3847 56.253 35.1934 56.2509 35V31.25H61.8396ZM31.2509 46.25H40.2771L38.6371 50H26.3646L30.0009 41.6888V45C30.0009 45.3315 30.1326 45.6495 30.367 45.8839C30.6014 46.1183 30.9193 46.25 31.2509 46.25ZM37.5434 52.5L30.4334 68.75H18.1621L25.2709 52.5H37.5434ZM40.2709 52.5H52.5434L45.4334 68.75H33.1621L40.2709 52.5ZM53.7509 34.705L51.2509 39.705V18.75H53.7509V34.705ZM28.7509 11.25H57.5009V16.25H28.7509V11.25ZM48.7509 18.75V43.75H32.5009V18.75H48.7509ZM20.8184 31.25H30.0009V35.4538L23.6371 50H12.6146L20.8184 31.25ZM11.5209 52.5H22.5434L15.4334 68.75H4.41211L11.5209 52.5ZM59.1834 68.75H48.1621L55.2709 52.5H66.2934L59.1834 68.75ZM64.0996 63.75L76.2509 35.975V63.75H64.0996Z" fill="#FA5A28"/>
</svg>
