<svg width="200" height="152" viewBox="0 0 200 152" fill="none" xmlns="http://www.w3.org/2000/svg">
<g clip-path="url(#clip0_2889_3029)">
<path d="M90.2734 0.335938H166.209C174.754 0.335938 181.713 9.91155 181.713 21.6691V35.6087C181.713 41.6695 178.101 46.6391 173.697 46.6391H108.949C104.544 46.6391 100.932 41.6695 100.932 35.6087V20.4571C100.932 14.7603 99.4349 9.06314 96.6158 4.82074C94.9423 2.27516 92.8282 0.335938 90.2734 0.335938Z" fill="#122621"/>
<path fill-rule="evenodd" clip-rule="evenodd" d="M60.3522 0.335938H165.369C161.836 0.335938 158.912 2.27551 156.597 4.8211C152.699 9.0635 150.628 14.7603 150.628 20.4575V35.6091C150.628 35.9423 150.613 36.272 150.583 36.5978V119.402H38.9102V21.6695C38.9102 9.91191 48.5345 0.335938 60.3522 0.335938Z" fill="#FA5A28"/>
<path fill-rule="evenodd" clip-rule="evenodd" d="M60.3522 0.335938H165.369C161.836 0.335938 158.912 2.27551 156.597 4.8211C152.699 9.0635 150.628 14.7603 150.628 20.4575V35.6091C150.628 35.9423 150.613 36.272 150.583 36.5978V119.402H38.9102V21.6695C38.9102 9.91191 48.5345 0.335938 60.3522 0.335938Z" fill="#FA5A28"/>
<path fill-rule="evenodd" clip-rule="evenodd" d="M18.8789 66.3506V130.153C18.8789 139.385 26.3567 146.863 35.5888 146.863H152.55C161.783 146.863 169.261 139.385 169.261 130.153V66.5527C168.756 66.9775 168.229 67.3753 167.682 67.7446L114.471 103.676C108.481 107.725 101.417 109.888 94.1881 109.888C86.9587 109.888 79.8948 107.725 73.9054 103.676L20.6941 67.7446C20.0611 67.3175 19.4549 66.8519 18.8789 66.3506Z" fill="#FA5A28"/>
<path d="M18.8785 66.3503L22.1153 62.6333C21.402 62.0119 20.5249 61.6089 19.5888 61.4724C18.6527 61.336 17.6971 61.4718 16.836 61.8637C15.975 62.2556 15.245 62.8871 14.7331 63.6826C14.2212 64.4782 13.9491 65.4043 13.9492 66.3503H18.8785ZM169.26 66.5524H174.189C174.189 65.6134 173.921 64.694 173.416 63.9023C172.911 63.1106 172.19 62.4795 171.339 62.0834C170.488 61.6874 169.541 61.5427 168.61 61.6665C167.679 61.7902 166.803 62.1773 166.085 62.7821L169.26 66.5524ZM167.682 67.7443L170.44 71.8291L170.441 71.8284L167.682 67.7443ZM20.6937 67.7443L23.452 63.6591L23.4517 63.6588L20.6937 67.7443ZM13.9492 66.3503V130.152H23.8075V66.3503H13.9492ZM13.9492 130.152C13.9492 142.107 23.634 151.792 35.5884 151.792V141.933C29.0786 141.933 23.8075 136.662 23.8075 130.152H13.9492ZM35.5884 151.792H152.55V141.933H35.5884V151.792ZM152.55 151.792C164.505 151.792 174.189 142.107 174.189 130.152H164.331C164.331 136.662 159.06 141.933 152.55 141.933V151.792ZM174.189 130.152V66.5524H164.331V130.152H174.189ZM166.085 62.7821C165.713 63.0951 165.325 63.3881 164.922 63.6598L170.441 71.8284C171.132 71.3619 171.798 70.8592 172.435 70.3224L166.085 62.7821ZM164.923 63.6591L111.712 99.5909L117.229 107.761L170.44 71.8291L164.923 63.6591ZM111.712 99.5909C106.537 103.089 100.434 104.959 94.1879 104.959C87.9416 104.959 81.8383 103.089 76.6637 99.5909L71.1467 107.761C85.0789 117.169 103.297 117.169 117.229 107.761L111.712 99.5909ZM76.6637 99.5909L23.452 63.6591L17.9354 71.8291L71.1467 107.761L76.6637 99.5909ZM23.4517 63.6588C22.9857 63.3446 22.5394 63.0021 22.1153 62.6333L15.6414 70.0676C16.3695 70.7013 17.1357 71.2897 17.9358 71.8294L23.4517 63.6588Z" fill="white"/>
<path d="M67.125 68.5559H125.431M67.3137 48.9742H125.29M67.3137 32.6318H125.29" stroke="white" stroke-width="8.56678" stroke-linecap="round" stroke-linejoin="round"/>
<path d="M183.631 126.641L174.163 136.109C173.819 136.454 173.819 137.013 174.163 137.358L174.163 137.358C174.508 137.703 175.067 137.703 175.412 137.358L184.88 127.89C185.225 127.545 185.225 126.986 184.88 126.641L184.88 126.641C184.535 126.296 183.976 126.296 183.631 126.641Z" fill="#E1E4E5"/>
<path d="M182.706 133.421L179.976 136.151C179.631 136.496 179.631 137.055 179.976 137.4L179.976 137.4C180.321 137.745 180.88 137.745 181.224 137.4L183.955 134.669C184.3 134.324 184.3 133.765 183.955 133.421L183.955 133.421C183.61 133.076 183.051 133.076 182.706 133.421Z" fill="#E1E4E5"/>
<path d="M28.0179 53.8381C28.0179 55.8808 26.3625 57.5345 24.3172 57.5345C22.2724 57.5345 20.625 55.8727 20.625 53.8381C20.625 51.7953 22.2805 50.1416 24.3254 50.1416C26.3706 50.1416 28.0179 51.7953 28.0179 53.8381Z" stroke="#E1E4E5" stroke-width="1.94558" stroke-miterlimit="10"/>
<path d="M23.4202 27.3131C18.0008 32.0485 8.6782 30.2527 8.6782 30.2527C8.6782 30.2527 8.14852 20.7792 13.5725 16.0471C18.9916 11.3117 28.3097 13.1043 28.3097 13.1043C28.3097 13.1043 28.8397 22.5774 23.4202 27.3131Z" fill="url(#paint0_linear_2889_3029)"/>
<path d="M177.784 64.8049L169.328 68.1106L169.864 59.0477L178.317 55.7441L177.784 64.8049Z" stroke="#E1E4E5" stroke-width="2.29152" stroke-linecap="round" stroke-linejoin="round"/>
<path d="M4.59511 112.187L14.0633 102.719C14.4081 102.374 14.4081 101.815 14.0634 101.471L14.0631 101.47C13.7184 101.126 13.1595 101.126 12.8148 101.47L3.34656 110.939C3.00185 111.283 3.00184 111.842 3.34655 112.187L3.34681 112.187C3.69152 112.532 4.2504 112.532 4.59511 112.187Z" fill="#E1E4E5"/>
<path d="M5.52402 105.408L8.25475 102.677C8.59946 102.332 8.59947 101.773 8.25476 101.429L8.25451 101.428C7.9098 101.084 7.35091 101.084 7.0062 101.428L4.27546 104.159C3.93075 104.504 3.93076 105.063 4.27547 105.407L4.27572 105.408C4.62043 105.752 5.17931 105.752 5.52402 105.408Z" fill="#E1E4E5"/>
<path d="M3.00311 75.8784C2.41912 78.0578 3.71253 80.2981 5.89201 80.8821C8.07149 81.4661 10.3117 80.1727 10.8957 77.9932C11.4797 75.8137 10.1863 73.5735 8.00683 72.9895C5.82735 72.4055 3.5871 73.6989 3.00311 75.8784Z" fill="#E1E4E5"/>
<path d="M180.823 99.6137C180.239 101.793 181.533 104.033 183.712 104.617C185.892 105.201 188.132 103.908 188.716 101.729C189.3 99.5491 188.007 97.3088 185.827 96.7248C183.648 96.1408 181.407 97.4342 180.823 99.6137Z" fill="#E1E4E5"/>
<path d="M2.51025 38.0795H2.54699C2.76466 41.1043 5.0583 41.1506 5.0583 41.1506C5.0583 41.1506 2.52933 41.1993 2.52933 44.694C2.52933 41.1993 0 41.1506 0 41.1506C0 41.1506 2.29258 41.1043 2.51025 38.0795ZM193.944 71.9315H193.992C194.277 75.846 197.276 75.9064 197.276 75.9064C197.276 75.9064 193.969 75.9689 193.969 80.4919C193.969 75.9689 190.661 75.9064 190.661 75.9064C190.661 75.9064 193.66 75.846 193.944 71.9315ZM194.316 32.6318H194.398C194.883 39.0375 200 39.1361 200 39.1361C200 39.1361 194.358 39.2385 194.358 46.6396C194.358 39.2385 188.716 39.1361 188.716 39.1361C188.716 39.1361 193.83 39.0375 194.316 32.6318Z" fill="#E1E4E5"/>
</g>
<defs>
<linearGradient id="paint0_linear_2889_3029" x1="2.02167" y1="43.2686" x2="42.7241" y2="-10.9565" gradientUnits="userSpaceOnUse">
<stop stop-color="white"/>
<stop offset="1" stop-color="#EEEEEE"/>
</linearGradient>
<clipPath id="clip0_2889_3029">
<rect width="200" height="151.943" fill="white"/>
</clipPath>
</defs>
</svg>
