<svg width="180" height="180" viewBox="0 0 180 180" fill="none" xmlns="http://www.w3.org/2000/svg">
<path d="M17.334 95L8.33398 83L90.834 20L120.834 42.875V27.5H143.334V60.125L173.334 83L164.334 95L90.834 38.9375L17.334 95Z" fill="#1D3B34"/>
<path d="M77.4394 160.833L69.9545 148.388L55.7727 145.277L57.1515 130.888L47.5 119.999L57.1515 109.11L55.7727 94.7216L69.9545 91.6105L77.4394 79.166L90.8333 84.8049L104.227 79.166L111.712 91.6105L125.894 94.7216L124.515 109.11L134.167 119.999L124.515 130.888L125.894 145.277L111.712 148.388L104.227 160.833L90.8333 155.194L77.4394 160.833ZM86.697 133.805L108.955 111.833L103.439 106.194L86.697 122.722L78.2273 114.555L72.7121 119.999L86.697 133.805Z" fill="#FA5A28"/>
</svg>
