<svg width="32" height="32" viewBox="0 0 32 32" fill="none" xmlns="http://www.w3.org/2000/svg">
<path d="M5.33464 28C4.6013 28 3.97352 27.7389 3.4513 27.2167C2.92908 26.6944 2.66797 26.0667 2.66797 25.3333V6.66667C2.66797 5.93333 2.92908 5.30556 3.4513 4.78333C3.97352 4.26111 4.6013 4 5.33464 4H26.668C27.4013 4 28.0291 4.26111 28.5513 4.78333C29.0735 5.30556 29.3346 5.93333 29.3346 6.66667V25.3333C29.3346 26.0667 29.0735 26.6944 28.5513 27.2167C28.0291 27.7389 27.4013 28 26.668 28H5.33464ZM6.66797 22.6667H13.3346V20H6.66797V22.6667ZM19.4013 20L26.0013 13.4L24.1013 11.5L19.4013 16.2333L17.5013 14.3333L15.6346 16.2333L19.4013 20ZM6.66797 17.3333H13.3346V14.6667H6.66797V17.3333ZM6.66797 12H13.3346V9.33333H6.66797V12Z" fill="white"/>
</svg>
