<svg width="80" height="80" viewBox="0 0 80 80" fill="none" xmlns="http://www.w3.org/2000/svg">
<path d="M37.2275 46.0784L41.7022 50.5531C42.2274 51.0783 42.8325 51.468 43.4682 51.7696L51.8679 43.37C51.5663 42.7336 51.1767 42.1291 50.6514 41.6038L46.1767 37.129L43.1934 40.1119L20.1786 17.1953L23.4309 13.9428L9.50877 4L4 9.50877L13.9428 23.4311L17.1952 20.1786L40.2102 43.0951L37.2275 46.0784Z" fill="#FA5A28"/>
<path d="M32.666 56.308L37.2275 52.0438L31.2609 46.0779L34.2442 43.0946L31.2609 40.1113L23.7168 47.3588C18.3942 45.4652 12.3695 46.7729 8.31737 50.8256C2.56088 56.5817 2.56088 65.9508 8.31737 71.7073C14.074 77.4634 23.4431 77.4634 29.1992 71.7073C33.2512 67.6548 34.5596 61.63 32.666 56.308ZM14.2835 65.7408C11.8161 63.2729 11.8161 59.2588 14.2835 56.7911C16.7507 54.3237 20.7654 54.3237 23.2327 56.7911C25.7005 59.2588 25.7005 63.2729 23.2327 65.7408C20.7653 68.2082 16.7513 68.2082 14.2835 65.7408Z" fill="#FA5A28"/>
<path d="M20.2506 59.7752C19.4274 58.9526 18.0905 58.9526 17.2674 59.7752C16.4447 60.5984 16.4447 61.9353 17.2674 62.7584C18.0905 63.5816 19.4274 63.5816 20.2506 62.7584C21.0732 61.9353 21.0732 60.5984 20.2506 59.7752ZM72.9167 58.025L58.1099 43.0955L52.1432 49.0615L65.4589 62.4997L62.4757 65.483L49.1605 52.0448L43.194 58.0107L58.001 72.9408C62.1129 77.0526 68.8047 77.0526 72.9167 72.9408C77.0286 68.8289 77.0286 62.1371 72.9167 58.025ZM47.3336 23.7426L40.2108 31.1631L43.194 34.1463L46.1773 31.1631L52.1432 37.129L56.2827 32.6922C61.6052 34.5859 67.6299 33.2775 71.682 29.2255C76.0939 24.8135 77.2534 18.0606 74.5664 12.4222L74.2442 11.7474L65.7161 20.2764H59.7494V14.3096L68.2784 5.78143L67.6036 5.45999C61.965 2.77243 55.2123 3.93186 50.8002 8.34379C46.7484 12.3959 45.44 18.4206 47.3336 23.7426Z" fill="#FA5A28"/>
</svg>
