<svg width="80" height="80" viewBox="0 0 80 80" fill="none" xmlns="http://www.w3.org/2000/svg">
<path d="M72.0881 23.1857L69.4868 26.4279L37.5547 3.24222L40.156 0L72.0881 23.1857Z" fill="#FA5A28"/>
<path d="M40.1583 0L42.7597 3.27992L10.6013 26.164L8 22.9218L40.1583 0Z" fill="#FA5A28"/>
<path d="M70.213 73.0996H10.2695V79.9988H70.213V73.0996Z" fill="#FA5A28"/>
<path d="M40.0436 9.2002L15.9531 26.3915V77.6639H64.1718V26.3915L40.0436 9.2002ZM37.6685 73.0645H22.136V50.4443H37.6685V73.0645ZM37.6685 44.7893H22.136V30.8779H37.6685V44.7893ZM42.758 30.7648H58.3282V44.6385H42.758V30.7648ZM58.4413 64.0918H42.9088V50.3689H58.4413V64.0918Z" fill="#FA5A28"/>
</svg>
